<svg id="Layer_1" data-name="Layer 1" xmlns="http://www.w3.org/2000/svg" viewBox="0 0 160 160"><defs><style>.cls-1{fill:#ccc;}.cls-11,.cls-12,.cls-2,.cls-7,.cls-8{fill:gray;}.cls-2{fill-rule:evenodd;}.cls-10,.cls-13,.cls-3,.cls-4,.cls-5,.cls-6,.cls-9{fill:#fff;}.cls-10,.cls-11,.cls-12,.cls-3,.cls-4,.cls-5,.cls-6,.cls-9{stroke:gray;}.cls-10,.cls-11,.cls-12,.cls-3,.cls-4,.cls-5,.cls-6,.cls-8,.cls-9{stroke-miterlimit:10;}.cls-3{stroke-width:0.91px;}.cls-4{stroke-width:0.97px;}.cls-5{stroke-width:1.07px;}.cls-6{stroke-width:1.26px;}.cls-8{stroke:#fff;stroke-width:0.64px;}.cls-9{stroke-width:0.99px;}.cls-10{stroke-width:0.82px;}.cls-11{font-size:9.79px;stroke-width:0.32px;}.cls-11,.cls-12,.cls-14{font-family:VarelaRound-Regular, Varela Round;}.cls-12{font-size:13.27px;stroke-width:0.43px;}.cls-14{font-size:20px;fill:#246772;}</style></defs><title>ATM copy</title><path class="cls-1" d="M145,65a65,65,0,0,1-64.89,65l5-5.23.67-.71,2.12-2.23a57.79,57.79,0,1,0-15.48,0l2.1,2.22.69.73L80.1,130H80a65,65,0,1,1,65-65Z"/><path class="cls-2" d="M131.82,64.57h0A51.18,51.18,0,1,1,80.65,13.39,51.17,51.17,0,0,1,131.82,64.57Z"/><polygon class="cls-3" points="68.93 107.51 73 82.36 88.99 82.36 93.06 107.51 68.93 107.51"/><polygon class="cls-4" points="68.18 105.63 72.5 78.92 89.49 78.92 93.82 105.63 68.18 105.63"/><rect class="cls-5" x="49.4" y="39.1" width="61.2" height="54.62" rx="3.2"/><rect class="cls-6" x="57.97" y="28.55" width="44.65" height="17.17"/><rect class="cls-7" x="76.31" y="50.11" width="26.06" height="20"/><rect class="cls-7" x="63.36" y="66.92" width="3.88" height="2.77"/><rect class="cls-7" x="76.31" y="72.64" width="26.06" height="2.02"/><rect class="cls-7" x="63.36" y="62.54" width="3.88" height="2.77"/><rect class="cls-7" x="68.93" y="66.92" width="3.88" height="2.77"/><rect class="cls-7" x="68.93" y="62.54" width="3.88" height="2.77"/><rect class="cls-7" x="57.3" y="66.92" width="3.88" height="2.77"/><rect class="cls-7" x="57.3" y="62.54" width="3.88" height="2.77"/><rect class="cls-7" x="63.36" y="58.11" width="3.88" height="2.77"/><rect class="cls-7" x="68.93" y="58.11" width="3.88" height="2.77"/><rect class="cls-7" x="57.3" y="58.11" width="3.88" height="2.77"/><rect class="cls-7" x="56.75" y="50.86" width="1.85" height="4.05"/><rect class="cls-7" x="71.69" y="50.86" width="1.53" height="4.05"/><rect class="cls-7" x="56.75" y="50.86" width="16.47" height="1.63"/><rect class="cls-8" x="62.9" y="82.36" width="36.19" height="5.57"/><polygon class="cls-9" points="67.9 103.81 72.32 76.51 89.68 76.51 94.1 103.81 67.9 103.81"/><path class="cls-10" d="M91.49,99.25,88.48,80a5.16,5.16,0,0,1-2.94-1.66H77.23a5.81,5.81,0,0,1-3.74,1.82l-3,19.12a6.2,6.2,0,0,1,4.14,2.45H87.08C87.74,100.58,89.39,99.65,91.49,99.25Z"/><text class="cls-11" transform="matrix(0.04, 1, -1, 0.04, 77.42, 88.35)">$</text><text class="cls-12" transform="translate(61.33 42.34)">A T M</text><rect class="cls-7" x="66.14" y="82.67" width="29.91" height="1.61"/><rect class="cls-13" x="67.53" y="75.49" width="25.53" height="7.18"/><g id="Restaurants"><text class="cls-14" transform="translate(54.78 155.93) scale(0.9 1)">500m</text></g></svg>