<svg id="Layer_1" data-name="Layer 1" xmlns="http://www.w3.org/2000/svg" viewBox="0 0 160 160"><defs><style>.cls-1{font-size:20px;fill:#246772;font-family:VarelaRound-Regular, Varela Round;}.cls-2{fill:#7b7bff;}.cls-3{fill:#000096;fill-rule:evenodd;}.cls-4{fill:#fff;}.cls-5,.cls-6{fill:none;stroke:#fff;stroke-miterlimit:10;}.cls-5{stroke-width:4.41px;}.cls-6{stroke-linecap:round;stroke-width:2.16px;}</style></defs><title>Bars</title><g id="Restaurants"><text class="cls-1" transform="translate(54.78 155.93) scale(0.9 1)">500m</text></g><path class="cls-2" d="M144.71,64.67a65,65,0,0,1-64.87,65l5-5.23.68-.71,2.11-2.23a57.77,57.77,0,1,0-15.47,0l2.1,2.22.69.73,4.93,5.21h-.1a65,65,0,1,1,65-65Z"/><path class="cls-3" d="M131.53,64.23h0A51.16,51.16,0,1,1,80.37,13.07,51.15,51.15,0,0,1,131.53,64.23Z"/><path class="cls-4" d="M70.9,40.68l.37,14.38a9,9,0,1,1-18,0l.37-14.38H70.9m3.9-4H49.72L49.25,55a13,13,0,1,0,26,0L74.8,36.68Z"/><rect class="cls-4" x="60.45" y="67.12" width="3.61" height="22.69"/><path class="cls-4" d="M55.8,89.81H68.72A2.29,2.29,0,0,1,71,92.1v0a0,0,0,0,1,0,0H53.5a0,0,0,0,1,0,0v0A2.29,2.29,0,0,1,55.8,89.81Z"/><path class="cls-4" d="M103.82,53.75,104.49,84c0,2.82-2,5.1-4.43,5.1H86.12c-2.43,0-4.41-2.28-4.43-5.1l.68-30.21h21.45m3.91-4H78.46l-.77,34.17c0,5,3.78,9.14,8.43,9.14h13.94c4.66,0,8.43-4.09,8.43-9.14l-.76-34.17Z"/><path class="cls-5" d="M107.28,61.05c.15,0,0,0,.53,0a6.17,6.17,0,0,1,6,5.57l.51,5.28a6.18,6.18,0,0,1-6.15,6.78h-.47"/><rect class="cls-4" x="78.46" y="48.7" width="29.27" height="5.56"/><circle class="cls-4" cx="82.82" cy="48.52" r="4.39"/><circle class="cls-4" cx="90.5" cy="46.26" r="8"/><circle class="cls-4" cx="100.25" cy="47.14" r="4.86"/><circle class="cls-4" cx="104.48" cy="49.51" r="3.25"/><line class="cls-6" x1="93.46" y1="62.25" x2="93.46" y2="84.23"/><line class="cls-6" x1="100.37" y1="62.25" x2="100.37" y2="84.23"/><line class="cls-6" x1="85.97" y1="62.25" x2="85.97" y2="84.23"/><rect class="cls-4" x="96.74" y="50.65" width="3.51" height="6.74" rx="1.75"/><path class="cls-4" d="M62.26,67.12h0A12.28,12.28,0,0,1,50,54.85V47.6H74.53v7.25A12.28,12.28,0,0,1,62.26,67.12Z"/></svg>