<svg id="Layer_1" data-name="Layer 1" xmlns="http://www.w3.org/2000/svg" viewBox="0 0 160 160"><defs><style>.cls-1{font-size:20px;fill:#246772;font-family:VarelaRound-Regular, Varela Round;}.cls-2{fill:#e88bf2;}.cls-3{fill:#e326ed;fill-rule:evenodd;}.cls-4{fill:#fff;}</style></defs><title>Beauty Parlour</title><g id="Restaurants"><text class="cls-1" transform="translate(54.78 155.93) scale(0.9 1)">500m</text></g><path class="cls-2" d="M145.46,65A65,65,0,0,1,80.6,130l5-5.22.68-.71,2.11-2.23a57.77,57.77,0,1,0-15.47,0L75,124l.69.73,4.93,5.2h-.1a65,65,0,1,1,65-65Z"/><path class="cls-3" d="M132.29,64.55h0A51.16,51.16,0,1,1,81.13,13.38,51.16,51.16,0,0,1,132.29,64.55Z"/><path class="cls-4" d="M71.49,57.23A14.06,14.06,0,0,1,69,52.9c-.74-2.13-.68-3.78.17-4.63s2.5-.91,4.64-.17a14,14,0,0,1,4.33,2.45h0l7.17,7.17c1.92,2.11,2.07,5.18.28,7s-5.07,1.64-7.18-.47l-4.41-4.41h0L71.5,57.27Z"/><path class="cls-4" d="M74.6,49.05l.49-.48L106.82,80.3a.93.93,0,0,1,0,1.31h0a.91.91,0,0,1-1.31,0l-.65-.65h0L75.12,51.22a9.63,9.63,0,0,0-2.2,6.58,10,10,0,0,0,3,6.57l6.91,6.9h0l10.39,10.4L106.53,95h0l.65.66a.93.93,0,0,1,0,1.31h0a.93.93,0,0,1-1.31,0L74.43,65.53A11.5,11.5,0,0,1,71.06,57,11.89,11.89,0,0,1,74.6,49.05Z"/><path class="cls-4" d="M56.49,72.21A13.78,13.78,0,0,1,54,67.88c-.74-2.14-.68-3.79.17-4.64s2.49-.91,4.63-.17a14.06,14.06,0,0,1,4.33,2.45h0l7.16,7.16c1.93,2.11,2.07,5.19.28,7s-5.07,1.63-7.18-.48L59,74.78v0l-2.56-2.56Z"/><path class="cls-4" d="M59.6,64l.48-.49L96.46,99.92a.93.93,0,0,1,0,1.31h0a.93.93,0,0,1-1.31,0l-.65-.65h0L60.11,66.2a9.61,9.61,0,0,0-2.2,6.57,9.93,9.93,0,0,0,3,6.57l6.9,6.91h0l10.4,10.39L87.57,106h0l.65.66a.93.93,0,0,1,0,1.31h0a.93.93,0,0,1-1.31,0L59.43,80.5a11.4,11.4,0,0,1-3.37-8.56A11.78,11.78,0,0,1,59.6,64Z"/><path class="cls-4" d="M56.57,57.27a13.86,13.86,0,0,1-2.45-4.33c-.74-2.13-.68-3.78.17-4.63s2.5-.91,4.63-.17a13.86,13.86,0,0,1,4.33,2.45h0l7.17,7.17c1.92,2.11,2.06,5.18.27,7s-5.07,1.64-7.17-.47l-4.42-4.41h0l-2.55-2.55Z"/><path class="cls-4" d="M59.51,49.26l.65-.65L95,83.41l-1.31,1.31-1.31-1.31h0L60.2,51.26a9.69,9.69,0,0,0,.62,13l7.05,7h0l10.4,10.4,7.89,7.88h0l1.31,1.31-1.31,1.32L59.51,65.57a11.53,11.53,0,0,1,0-16.31Z"/><path class="cls-4" d="M94.67,47.51a8.89,8.89,0,0,0,5.76,1.89,3,3,0,0,1-2,1.41,9,9,0,0,1-4.15.25,12.78,12.78,0,0,1-8.88-4.78,8.47,8.47,0,0,1-1.82-4,6.26,6.26,0,0,1,.1-2.2,2.35,2.35,0,0,1,2.33-1.94A5.42,5.42,0,0,1,90,39.28a7.51,7.51,0,0,1,.79.69c3.18,3.55,8.93,2.53,11.29-.16a5.93,5.93,0,0,1,.48-.45,3.39,3.39,0,0,1-.92,3.5,6.1,6.1,0,0,1-3.28,1.71c1.61.59,3.09-.12,4.61-.3a4.15,4.15,0,0,1-4.18,3.63C97.48,47.9,96.19,47.66,94.67,47.51Z"/><path class="cls-4" d="M81.59,38.38c-.4-.36-.61-.52-.79-.7q-5.68-5.62-11.37-11.24a2.18,2.18,0,0,1-.81-2.31A1.93,1.93,0,0,1,71.55,23a4.16,4.16,0,0,1,.61.5L83.79,35a6.5,6.5,0,0,1,.48.59A3.91,3.91,0,0,0,81.59,38.38Z"/></svg>