<svg id="Layer_1" data-name="Layer 1" xmlns="http://www.w3.org/2000/svg" viewBox="0 0 220.28 220.28"><defs><style>.cls-1{fill:none;stroke:#679d34;stroke-miterlimit:10;stroke-width:6px;}.cls-2{fill:#679d34;}</style></defs><title>Bottle Store</title><circle class="cls-1" cx="110.14" cy="110.14" r="107.14"/><path class="cls-2" d="M95.84,117.13s8.22-5,16.46,0c7.06,4.32,10.27,1.24,11.77.27a.21.21,0,0,1,.32.22c-.56,3.52.75,18.3-15.62,17.39C94.33,134.2,95.84,117.13,95.84,117.13Z"/><path class="cls-2" d="M158.93,174.86H61.36l8.51-104H151Zm-45.57-6h39.09l-7-92h-70l-7.53,92h39.48V149.21L96,140a25.53,25.53,0,0,1-7.36-9.49c-2.57-5.88-4.45-15.52,1.21-28.05l.8-1.76,38.88-.07.86,1.53c4.3,7.57,8.66,25.25-5.57,37.93l-.14.11-11.34,9ZM94.59,106.73c-3.83,9.65-2.4,16.92-.43,21.42a19.41,19.41,0,0,0,5.63,7.22l10.58,8.57,10.54-8.35c11.79-10.56,7.09-24.33,5-28.91Z"/><path class="cls-2" d="M84.41,83.22c-.13-.73-3-17.94,6-29,4.52-5.56,11.15-8.52,19.69-8.79,9.25-.3,16.44,2.41,21.37,8,9.59,11,6.72,28.94,6.59,29.7l-5.92-1c0-.16,2.52-16-5.2-24.78-3.69-4.2-9.29-6.21-16.65-6C103.53,51.66,98.42,53.87,95,58c-7.25,8.9-4.74,24-4.72,24.18Z"/><circle class="cls-2" cx="87.37" cy="82.7" r="4.43"/><circle class="cls-2" cx="135.51" cy="82.7" r="4.43"/></svg>