<svg id="Layer_1" data-name="Layer 1" xmlns="http://www.w3.org/2000/svg" viewBox="0 0 160 160"><defs><style>.cls-1{font-size:20px;fill:#246772;font-family:VarelaRound-Regular, Varela Round;}.cls-2{fill:#6dbcb6;}.cls-3{fill:#228984;fill-rule:evenodd;}.cls-4,.cls-5{fill:#fff;}.cls-5{stroke:#fff;stroke-miterlimit:10;stroke-width:3px;}</style></defs><title>Car Dealers</title><g id="Restaurants"><text class="cls-1" transform="translate(54.78 155.93) scale(0.9 1)">500m</text></g><path class="cls-2" d="M145.27,65a65,65,0,0,1-64.86,65l5-5.22L86,124l2.11-2.23a57.77,57.77,0,1,0-15.47,0l2.1,2.22.69.73L80.4,130h-.1a65,65,0,1,1,65-65Z"/><path class="cls-3" d="M132.1,64.55h0A51.16,51.16,0,1,1,80.94,13.38,51.16,51.16,0,0,1,132.1,64.55Z"/><path class="cls-4" d="M56.4,78c-.54,0-.93,0-1.33,0a1.37,1.37,0,0,1-1.45-1.2c-.24-1.18-.53-2.36-.75-3.54a1.36,1.36,0,0,1,1.45-1.67c1.43,0,2.86,0,4.29,0a1,1,0,0,0,1-.7c.74-1.62,1.51-3.24,2.37-4.8,1.27-2.32,3.5-3.33,5.88-4.06a41.24,41.24,0,0,1,14.87-1.4,35.42,35.42,0,0,1,8.65,1.62,9.64,9.64,0,0,1,6.09,5.41c.51,1.1,1,2.19,1.48,3.31a.83.83,0,0,0,.91.62c1.37,0,2.75,0,4.13,0s1.89.67,1.61,2c-.2,1-.38,1.94-.59,2.91-.26,1.22-.61,1.5-1.87,1.51h-1.11a9.57,9.57,0,0,1,2.08,4.48,9,9,0,0,1-2.06,7.61,2.39,2.39,0,0,0-.68,1.83c0,1.24,0,2.48,0,3.72a2.05,2.05,0,0,1-2.24,2.27c-1.49,0-3,0-4.46,0a2,2,0,0,1-2.13-2.12c0-.6,0-1.2,0-1.87H66c0,.59,0,1.15,0,1.72a2.08,2.08,0,0,1-2.32,2.28c-1.41,0-2.81,0-4.22,0a2.08,2.08,0,0,1-2.3-2.3c0-1.43,0-2.86,0-4.29a1.62,1.62,0,0,0-.34-1,9.3,9.3,0,0,1-.67-12Zm39.32-4.3c-.61-1.4-1.18-2.64-1.69-3.91A6.3,6.3,0,0,0,89.7,66,37.26,37.26,0,0,0,77,64.64a30.2,30.2,0,0,0-8.58,1.5,5.61,5.61,0,0,0-3.55,3.09c-.59,1.36-1.19,2.72-1.77,4.08a1.51,1.51,0,0,0,0,.39ZM68.28,84.47a4,4,0,0,0-8,0,4,4,0,0,0,8,0Zm26.09-4a3.93,3.93,0,0,0-4,3.93,4,4,0,1,0,7.94,0A3.9,3.9,0,0,0,94.37,80.52Z"/><polygon class="cls-4" points="88.77 40.38 89.8 42.46 90.86 41.39 88.78 40.37 88.77 40.38"/><path class="cls-4" d="M104.32,37l-9.67-9.67c-.56-.56-1.33-.69-1.72-.29L79.23,40.76a.82.82,0,0,0-.22.49l-1.24,10.9a1.75,1.75,0,0,0,1.75,1.75l10.91-1.23a.81.81,0,0,0,.48-.23l13.7-13.69A1.28,1.28,0,0,0,104.32,37ZM96,31.45l.63.63-2,2,.94.94,1.74-1.74.64.63-1.74,1.75,1,1,2-2,.64.64L97.14,38l-3.87-3.87Zm-5.11,5.1,3.24,3.24L96,37.9l.64.64L94,41.14l-3.87-3.87Zm-2.6,2.6,5.3,2.44-.75.76-1.11-.54-1.48,1.47.53,1.12-.72.72-2.43-5.31ZM81.17,50.5a1.48,1.48,0,1,1,2.17.07A1.53,1.53,0,0,1,81.17,50.5Zm4.63-3,.4-.91a1.34,1.34,0,0,0,1.52-.34c.39-.4.61-.92.25-1.28-.9-.9-2.33,1.9-3.82.41a1.71,1.71,0,0,1,.2-2.51,1.92,1.92,0,0,1,2.23-.58l-.38.87a1.14,1.14,0,0,0-1.27.35.77.77,0,0,0-.1,1.13c.27.27.63.11,1-.11.79-.46,1.76-1.34,2.79-.31a1.84,1.84,0,0,1-.31,2.67A2.13,2.13,0,0,1,85.8,47.55Z"/><path class="cls-5" d="M72.06,62.67a8.63,8.63,0,0,1,.75-7,9.44,9.44,0,0,1,5.72-3.78l.1.52A9.1,9.1,0,0,0,73.25,56a8.16,8.16,0,0,0-.68,6.56Z"/><path class="cls-5" d="M81.1,62.48c-2.34-1.39-3.72-3.12-4.08-5.15a8.6,8.6,0,0,1,1.72-6.21l.42.28S77,54.18,77.54,57.24c.34,1.89,1.64,3.51,3.86,4.82Z"/></svg>