<svg id="Layer_1" data-name="Layer 1" xmlns="http://www.w3.org/2000/svg" viewBox="0 0 160 160"><defs><style>.cls-1{fill:#bce6ed;}.cls-2{fill:#00b5ed;fill-rule:evenodd;}.cls-3{fill:#fff;}.cls-4{font-size:20px;fill:#246772;font-family:VarelaRound-Regular, Varela Round;}</style></defs><title>Coffee copy</title><path class="cls-1" d="M145,65a65,65,0,0,1-64.89,65l5-5.23.67-.71,2.12-2.23a57.79,57.79,0,1,0-15.48,0l2.1,2.22.69.73L80.1,130H80a65,65,0,1,1,65-65Z"/><path class="cls-2" d="M131.82,64.57h0A51.18,51.18,0,1,1,80.65,13.39,51.17,51.17,0,0,1,131.82,64.57Z"/><path class="cls-3" d="M93.67,39.45a5,5,0,0,1-.94,1.82,1.13,1.13,0,0,0,.06,1.59,1.09,1.09,0,0,0,.77.3,1.11,1.11,0,0,0,.82-.36,6.79,6.79,0,0,0,.07-8.89,4.27,4.27,0,0,1-1.15-3.09,2.18,2.18,0,0,1,.37-.84,1.14,1.14,0,0,0,.11-1.19h0a1.12,1.12,0,0,0-1.89-.16,4.23,4.23,0,0,0-.78,1.75,6.21,6.21,0,0,0,1.56,4.91,4.64,4.64,0,0,1,1,4.17Zm0,0"/><path class="cls-3" d="M62.88,39.43a5,5,0,0,1-.94,1.82,1.13,1.13,0,0,0,.83,1.89,1.11,1.11,0,0,0,.82-.36,6.79,6.79,0,0,0,.07-8.89,4.29,4.29,0,0,1-1.15-3.09,1.94,1.94,0,0,1,.36-.82,1.12,1.12,0,0,0,0-1.23h0a1.11,1.11,0,0,0-1.85-.09,4,4,0,0,0-.74,1.7,6.21,6.21,0,0,0,1.56,4.91,4.64,4.64,0,0,1,1,4.17Zm0,0"/><path class="cls-3" d="M78.09,39.37a5,5,0,0,1-.94,1.82A1.13,1.13,0,0,0,78,43.08a1.11,1.11,0,0,0,.82-.36,6.8,6.8,0,0,0,.07-8.89,4.23,4.23,0,0,1-1.15-3.09A2.12,2.12,0,0,1,78,30a1.07,1.07,0,0,0,0-1.08,1.11,1.11,0,0,0-1.92-.14,4.23,4.23,0,0,0-.63,1.55,6.21,6.21,0,0,0,1.56,4.91,4.67,4.67,0,0,1,1,4.17Zm0,0"/><path class="cls-3" d="M49.06,94.1a1.71,1.71,0,0,0,.08.71l.12.38a5.91,5.91,0,0,0,5.62,4.08h45.59a5.91,5.91,0,0,0,5.62-4.08l.12-.38a1.71,1.71,0,0,0,.08-.71Z"/><path class="cls-3" d="M118,64.27a8.85,8.85,0,0,0-2.3-5.21A7.7,7.7,0,0,0,110,56.77a12.07,12.07,0,0,0-4.53.82c.08-2.05.06-3.77,0-5a1.85,1.85,0,0,0-1.86-1.79H51.72a1.85,1.85,0,0,0-1.86,1.79A65.14,65.14,0,0,0,51.93,71.4a35.4,35.4,0,0,0,5.2,11.26,23.21,23.21,0,0,0,8.29,7.19,11.92,11.92,0,0,0-2.59,2.05h29.7A11.4,11.4,0,0,0,90,89.84a25.75,25.75,0,0,0,6.69-5.21c.44-.54.9-1.06,1.32-1.62a31.34,31.34,0,0,1,8-2.77C114.29,78.37,118.68,70.49,118,64.27Zm-7.2,6.39a9.69,9.69,0,0,1-6,4.11c-.93.21-1.83.44-2.69.68a47.43,47.43,0,0,0,2.4-8.7c.14-.77.27-1.53.37-2.28a7.53,7.53,0,0,1,5.15-2.1c.92,0,2.17.26,2.42,2.52A9,9,0,0,1,110.79,70.66Z"/><g id="Restaurants"><text class="cls-4" transform="translate(54.78 155.93) scale(0.9 1)">500m</text></g></svg>