<svg id="Layer_1" data-name="Layer 1" xmlns="http://www.w3.org/2000/svg" viewBox="0 0 160 160"><defs><style>.cls-1{fill:#edde96;}.cls-2{fill:#ddc305;fill-rule:evenodd;}.cls-3{fill:#fff;}.cls-4{font-size:20px;fill:#246772;font-family:VarelaRound-Regular, Varela Round;}</style></defs><title>Fashion copy</title><path class="cls-1" d="M145,65a65,65,0,0,1-64.89,65l5-5.23.67-.71,2.12-2.23a57.79,57.79,0,1,0-15.48,0l2.1,2.22.69.73L80.1,130H80a65,65,0,1,1,65-65Z"/><path class="cls-2" d="M131.82,64.57h0A51.18,51.18,0,1,1,80.65,13.39,51.17,51.17,0,0,1,131.82,64.57Z"/><path class="cls-3" d="M120.73,75.12l-25-12.77a14,14,0,0,1-5.3-6.93A9.74,9.74,0,0,0,82,49.05a7.59,7.59,0,0,1,2.93-4.94,7.2,7.2,0,1,0-11.47-5.78,1.25,1.25,0,0,0,2.5,0,4.7,4.7,0,0,1,4.88-4.69,4.69,4.69,0,0,1,2.6,8.46,10.13,10.13,0,0,0-4,6.94,9.75,9.75,0,0,0-8.61,6.38,14,14,0,0,1-5.3,6.93l-25,12.77a4.64,4.64,0,0,0,4.23,8.26l3-1.55h65.65l3,1.55a4.71,4.71,0,0,0,2.1.51,4.64,4.64,0,0,0,2.12-8.77ZM51.92,77.91l19-9.69a19.79,19.79,0,0,1,17.95,0l19,9.69Z"/><g id="Restaurants"><text class="cls-4" transform="translate(54.78 155.93) scale(0.9 1)">500m</text></g></svg>