<svg id="Layer_1" data-name="Layer 1" xmlns="http://www.w3.org/2000/svg" viewBox="0 0 160 160"><defs><style>.cls-1{fill:#97a8d3;}.cls-2,.cls-5{fill:#25326b;}.cls-2{fill-rule:evenodd;}.cls-3,.cls-4{fill:#fff;}.cls-4{stroke:#25326b;stroke-miterlimit:10;stroke-width:1.35px;}.cls-6{font-size:20px;fill:#246772;font-family:VarelaRound-Regular, Varela Round;}</style></defs><title>Fast Food copy</title><path class="cls-1" d="M145,65a65,65,0,0,1-64.89,65l5-5.23.67-.71,2.12-2.23a57.79,57.79,0,1,0-15.48,0l2.1,2.22.69.73L80.1,130H80a65,65,0,1,1,65-65Z"/><path class="cls-2" d="M131.82,64.57h0A51.18,51.18,0,1,1,80.65,13.39,51.17,51.17,0,0,1,131.82,64.57Z"/><path class="cls-3" d="M91.65,59.25l.68-5.89H54.49l5.1,44,.26,2.31h27.2Z"/><path class="cls-3" d="M60.24,44.87h-.78a.63.63,0,0,1-.62-.75l.18-.91a.63.63,0,0,1,.62-.51H87.18a.63.63,0,0,1,.62.51l.18.91a.63.63,0,0,1-.62.75H60.24Z"/><path class="cls-3" d="M65.16,47.18H92.94a1.14,1.14,0,0,1,1.14,1.14v1.6a1.13,1.13,0,0,1-1.14,1.13H53.88a1.15,1.15,0,0,1-1.14-1.14v-1.6a1.13,1.13,0,0,1,1.14-1.13H65.16Z"/><path class="cls-4" d="M81.63,70h-3l-1.94-6a.27.27,0,0,1,0-.21s0,0,0,0L79.52,63h0a.38.38,0,0,1,.29.29l1.76,6.5Z"/><path class="cls-4" d="M87.17,71.66a3.06,3.06,0,0,1-.28-.49A2,2,0,0,0,85,70H84l-.19-.73-2-8.74a.27.27,0,0,1,0-.25s0,0,0,0l2.88-.48h0a.34.34,0,0,1,.28.31l1,5.5h0Z"/><path class="cls-4" d="M91.81,71.7l0,3.25A7.25,7.25,0,0,1,90,74.28l-1.63-9.11-.14-1.71a.42.42,0,0,1,.09-.29.11.11,0,0,1,.09,0l.76,0,2.18-.1a.12.12,0,0,1,.1,0,.38.38,0,0,1,.13.3Z"/><path class="cls-4" d="M98,75h0Z"/><path class="cls-4" d="M97.59,60.12l-.4,7L96,74.85a7,7,0,0,1-1.88.3l.15-15.09a.42.42,0,0,1,.11-.3.18.18,0,0,1,.11,0l3,.07a.11.11,0,0,1,.09,0A.42.42,0,0,1,97.59,60.12Z"/><path class="cls-4" d="M103.83,60.87,102,69.64l-.08.31h-.28a2,2,0,0,0-1.93,1.37.14.14,0,0,1,0,.06,5.21,5.21,0,0,1-1.16,1.87l.92-5.81h0l1.1-7a.33.33,0,0,1,.27-.31h0l2.89.42s0,0,.06,0A.33.33,0,0,1,103.83,60.87Z"/><path class="cls-4" d="M109,64.21,107.31,70h-3l1.56-6.32a.37.37,0,0,1,.29-.29h0L109,64a0,0,0,0,1,0,0A.26.26,0,0,1,109,64.21Z"/><path class="cls-3" d="M109,64.21,107.31,70h-3l1.56-6.32a.37.37,0,0,1,.29-.29h0L109,64a0,0,0,0,1,0,0A.26.26,0,0,1,109,64.21Z"/><path class="cls-3" d="M98,75h0Z"/><path class="cls-3" d="M103.83,60.87,102,69.64l-.08.31h-.28a2,2,0,0,0-1.93,1.37.14.14,0,0,1,0,.06,5.21,5.21,0,0,1-1.16,1.87l.92-5.81h0l1.1-7a.33.33,0,0,1,.27-.31h0l2.89.42s0,0,.06,0A.33.33,0,0,1,103.83,60.87Z"/><path class="cls-5" d="M98,75h0Z"/><path class="cls-3" d="M97.59,60.12l-.4,7L96,74.85a7,7,0,0,1-1.88.3l.15-15.09a.42.42,0,0,1,.11-.3.18.18,0,0,1,.11,0l3,.07a.11.11,0,0,1,.09,0A.42.42,0,0,1,97.59,60.12Z"/><path class="cls-5" d="M98,75h0Z"/><path class="cls-3" d="M81.63,70h-3l-1.94-6a.27.27,0,0,1,0-.21s0,0,0,0L79.52,63h0a.38.38,0,0,1,.29.29l1.76,6.5Z"/><path class="cls-3" d="M87.17,71.66a3.06,3.06,0,0,1-.28-.49A2,2,0,0,0,85,70H84l-.19-.73-2-8.74a.27.27,0,0,1,0-.25s0,0,0,0l2.88-.48h0a.34.34,0,0,1,.28.31l1,5.5h0Z"/><path class="cls-3" d="M91.81,71.7l0,3.25A7.25,7.25,0,0,1,90,74.28l-1.63-9.11-.14-1.71a.42.42,0,0,1,.09-.29.11.11,0,0,1,.09,0l.76,0,2.18-.1a.12.12,0,0,1,.1,0,.38.38,0,0,1,.13.3Z"/><path class="cls-3" d="M98,75h0Z"/><path class="cls-5" d="M98,75h0Z"/><path class="cls-5" d="M111.24,71a2.94,2.94,0,0,0-1.56-1l1.56-5.17a2.63,2.63,0,0,0-.23-2,2.32,2.32,0,0,0-1.52-1.11l-2.8-.63a2.62,2.62,0,0,0-.55-.05,2.62,2.62,0,0,0-.46-1.73,2.37,2.37,0,0,0-1.61-1l-2.89-.41a2.48,2.48,0,0,0-1.88.51l-.11-.13a2.34,2.34,0,0,0-1.72-.79l-3-.08a2.45,2.45,0,0,0-1.76.7A2.74,2.74,0,0,0,91.93,60v.72a2,2,0,0,0-.7-.07l-.83,0-2.33.12a2.47,2.47,0,0,0-.47.11l-.24-1.33a2.6,2.6,0,0,0-2.94-2.18l-.57.09-2.34.39a2.33,2.33,0,0,0-1.56,1,2.56,2.56,0,0,0-.41,1.74,2.6,2.6,0,0,0-.56.06l-.18,0-2.35.59a2.31,2.31,0,0,0-1.53,1.11,2.57,2.57,0,0,0-.22,2l1.71,5.73a3,3,0,0,0-1,.75,3,3,0,0,0-.66,2.45L76.69,84.6l1.44,8.31,1.3,7.56a2,2,0,0,0,2,1.68h23.81a2,2,0,0,0,2-1.68l1.3-7.56L110,84.6l.52-3,1-5.84.39-2.27A3,3,0,0,0,111.24,71Zm-5.36-7.39a.37.37,0,0,1,.29-.29h0L109,64a0,0,0,0,1,0,0,.26.26,0,0,1,0,.22L107.31,70h-3Zm-6.41,3.81h0l1.1-7a.33.33,0,0,1,.27-.31h0l2.89.42s0,0,.06,0a.33.33,0,0,1,0,.24L102,69.64l-.08.31h-.28a2,2,0,0,0-1.93,1.37.14.14,0,0,1,0,.06,5.21,5.21,0,0,1-1.16,1.87ZM98,75h0Zm-3.76-15a.42.42,0,0,1,.11-.3.18.18,0,0,1,.11,0l3,.07a.11.11,0,0,1,.09,0,.42.42,0,0,1,.09.29l-.4,7L96,74.85a7,7,0,0,1-1.88.3ZM88.3,63.17a.11.11,0,0,1,.09,0l.76,0,2.18-.1a.12.12,0,0,1,.1,0,.38.38,0,0,1,.13.3l.25,8.36,0,3.25A7.25,7.25,0,0,1,90,74.28l-1.63-9.11-.14-1.71A.42.42,0,0,1,88.3,63.17Zm-6.44-2.94s0,0,0,0l2.88-.48h0a.34.34,0,0,1,.28.31l1,5.5h0l1.1,6.14a3.06,3.06,0,0,1-.28-.49A2,2,0,0,0,85,70H84l-.19-.73-2-8.74A.27.27,0,0,1,81.86,60.23ZM76.7,63.7s0,0,0,0L79.52,63h0a.38.38,0,0,1,.29.29l1.76,6.5,0,.18h-3l-1.94-6A.27.27,0,0,1,76.7,63.7Zm33.2,9.43-.39,2.26-1,5.84-.52,3-1.43,8.31-1.3,7.55H81.44l-1.31-7.55L78.7,84.26,76.78,73.13a1,1,0,0,1,.49-1,1.06,1.06,0,0,1,.47-.12H85l0,.07a9.59,9.59,0,0,0,2.11,2.71,8.78,8.78,0,0,0,1,.77,8.33,8.33,0,0,0,1.21.7h0a8.9,8.9,0,0,0,2.78.85l.28,0a9.23,9.23,0,0,0,.93.07h.4a9.78,9.78,0,0,0,2.67-.37h0a7,7,0,0,0,1.37-.53l.37-.19a8,8,0,0,0,3.47-4.06l0-.07h7.27A1,1,0,0,1,109.9,73.13Z"/><path class="cls-3" d="M109.9,73.13l-.39,2.26-1,5.84-.52,3-1.43,8.31-1.3,7.55H81.44l-1.31-7.55L78.7,84.26,76.78,73.13a1,1,0,0,1,.49-1,1.06,1.06,0,0,1,.47-.12H85l0,.07a9.59,9.59,0,0,0,2.11,2.71,8.78,8.78,0,0,0,1,.77,8.33,8.33,0,0,0,1.21.7h0a8.9,8.9,0,0,0,2.78.85l.28,0a9.23,9.23,0,0,0,.93.07h.4a9.78,9.78,0,0,0,2.67-.37h0a7,7,0,0,0,1.37-.53l.37-.19a8,8,0,0,0,3.47-4.06l0-.07h7.27A1,1,0,0,1,109.9,73.13Z"/><path class="cls-3" d="M81.52,27.69,81,26.58a.6.6,0,0,0-.78-.29L72.4,29.92a1.4,1.4,0,0,0-.81,1.26v9.21H74V31.8l7.21-3.34A.57.57,0,0,0,81.52,27.69Z"/><g id="Restaurants"><text class="cls-6" transform="translate(54.78 155.93) scale(0.9 1)">500m</text></g></svg>