<svg id="Layer_1" data-name="Layer 1" xmlns="http://www.w3.org/2000/svg" viewBox="0 0 160 160"><defs><style>.cls-1{font-size:20px;fill:#246772;font-family:VarelaRound-Regular, Varela Round;}.cls-2{fill:#8c8cd1;}.cls-3{fill:#54549e;fill-rule:evenodd;}.cls-4{fill:#fff;}</style></defs><title>Tyre-shocks-exhaust-battery Fitment centres</title><g id="Restaurants"><text class="cls-1" transform="translate(54.78 155.93) scale(0.9 1)">500m</text></g><path class="cls-2" d="M145,65a65,65,0,0,1-64.87,65l5-5.22.67-.71,2.12-2.23a57.77,57.77,0,1,0-15.48,0l2.1,2.22.69.73L80.1,130H80a65,65,0,1,1,65-65Z"/><path class="cls-3" d="M131.8,64.55h0A51.16,51.16,0,1,1,80.65,13.38,51.16,51.16,0,0,1,131.8,64.55Z"/><path class="cls-4" d="M76.62,32.94h6.65c0,.56,0,1.13,0,1.69a.62.62,0,0,0,.36.43c1.45.31,2.9.6,4.36.85a.64.64,0,0,0,.55-.28,16.08,16.08,0,0,0,.67-1.5l6.05,2.48-.7,1.89,4.5,3,1.19-1.43L105,44.78,103.55,46l3,4.51,1.84-.75,2.48,6-1.81.8,1,5.18H112v6.55a14.61,14.61,0,0,0-1.49,0,.67.67,0,0,0-.49.38c-.32,1.44-.58,2.9-.88,4.35a.44.44,0,0,0,.34.61l1.46.62-2.48,6.06-1.84-.75-3,4.51L105,85.26l-4.77,4.83L99,88.66,94.61,91.6l.75,1.84-6,2.47-.81-1.81-5.17,1V97H76.7V95.1l-5.15-1-.8,1.84-6.06-2.49.76-1.83-4.5-3-1.21,1.45L55,85.28l1.45-1.17-3-4.51-1.83.76L49.14,74.3,51,73.51l-1-5.2H48V61.77a14,14,0,0,0,1.59,0,.62.62,0,0,0,.47-.39c.32-1.44.61-2.9.86-4.36a.7.7,0,0,0-.28-.55c-.47-.25-1-.43-1.5-.66l2.48-6,1.84.74,3-4.5L55,44.83l4.71-4.76,1.23,1.4,4.45-3-.74-1.84,6-2.48L71.49,36l5.13-1Zm23.59,32.17a20.21,20.21,0,1,0-20.3,20.14A20.23,20.23,0,0,0,100.21,65.11Z"/><path class="cls-4" d="M83.64,48.51a17.11,17.11,0,0,1,11.54,9l-4.21,1c-1.42.33-2.83.69-4.26,1a1.93,1.93,0,0,1-2.53-1.9c-.11-1.54-.18-3.08-.27-4.62S83.74,50.08,83.64,48.51Z"/><path class="cls-4" d="M76.26,48.6c-.12,2.35-.22,4.64-.33,6.93,0,.69-.05,1.38-.1,2.06a1.93,1.93,0,0,1-2.5,1.89c-2.74-.61-5.48-1.27-8.21-1.92a1.34,1.34,0,0,1-.18-.07C66,54,72.2,49,76.26,48.6Z"/><path class="cls-4" d="M80.06,60.67A4.38,4.38,0,1,1,75.62,65,4.38,4.38,0,0,1,80.06,60.67Z"/><path class="cls-4" d="M96.87,65.33A16.36,16.36,0,0,1,92.23,76.7c-.32-.55-.64-1.07-1-1.6l-2.44-4.17A2,2,0,0,1,90,67.81c2.15-.8,4.31-1.57,6.47-2.35Z"/><path class="cls-4" d="M86,80.89a17.22,17.22,0,0,1-12.48-.18l.4-.48,4.32-4.53c1.14-1.19,2.26-1.18,3.35.07C83.08,77.44,84.51,79.12,86,80.89Z"/><path class="cls-4" d="M67.36,76.28a17,17,0,0,1-4.24-11.21l.57.21q2.94,1.22,5.88,2.46a2,2,0,0,1,1.07,3.19C69.57,72.7,68.49,74.45,67.36,76.28Z"/><path class="cls-4" d="M80.87,57.61a1.06,1.06,0,0,1-1,1.06,1,1,0,1,1-.06-2.05A1,1,0,0,1,80.87,57.61Z"/><path class="cls-4" d="M72.31,64.55a1,1,0,1,1-.08-2,1,1,0,0,1,1.09,1A1,1,0,0,1,72.31,64.55Z"/><path class="cls-4" d="M76.58,71.74a1,1,0,0,1-2.07-.08,1,1,0,0,1,1.11-1A1,1,0,0,1,76.58,71.74Z"/><path class="cls-4" d="M83.74,72.73a1,1,0,0,1-1-1,1,1,0,0,1,1-1,1,1,0,0,1,1,1A1,1,0,0,1,83.74,72.73Z"/><path class="cls-4" d="M88.4,63.52a1,1,0,0,1-1,1,1,1,0,0,1-1-1,1,1,0,1,1,2-.07Z"/></svg>