<svg id="Layer_1" data-name="Layer 1" xmlns="http://www.w3.org/2000/svg" viewBox="0 0 160 160"><defs><style>.cls-1{fill:#83bac6;}.cls-2,.cls-4{fill:#246772;}.cls-2{fill-rule:evenodd;}.cls-3{fill:#fff;}.cls-4{font-size:20px;font-family:VarelaRound-Regular, Varela Round;}</style></defs><title>Fuel copy</title><path class="cls-1" d="M145,65a65,65,0,0,1-64.89,65l5-5.23.67-.71,2.12-2.23a57.79,57.79,0,1,0-15.48,0l2.1,2.22.69.73L80.1,130H80a65,65,0,1,1,65-65Z"/><path class="cls-2" d="M131.82,64.57h0A51.18,51.18,0,1,1,80.65,13.39,51.17,51.17,0,0,1,131.82,64.57Z"/><path class="cls-3" d="M113,52.29V46.63a3.69,3.69,0,0,0-2-3.26L101,38.12a1.39,1.39,0,0,0-.4-.21l-5.2-1.53a1.15,1.15,0,0,0-1.41.77l-.23.78a1.1,1.1,0,0,0,.09.87,1.13,1.13,0,0,0,.68.55l4.8,1.41a.64.64,0,0,1,.18.1l3.58,2.52,0,4.1a7.58,7.58,0,0,0,3,6l.73.55-.12,8V88.21a3.64,3.64,0,0,1-4.12,3.6,3.73,3.73,0,0,1-3.15-3.74V75.48A10.9,10.9,0,0,0,88.61,64.57h0V39.11a7.27,7.27,0,0,0-7.27-7.27H59.52a7.27,7.27,0,0,0-7.27,7.27V97.3H88.61V70h0a5.47,5.47,0,0,1,5.46,5.46V88a9.24,9.24,0,0,0,8.75,9.3,9.09,9.09,0,0,0,9.43-9.08V53.74l.13-.05C112.92,53.46,113,53,113,52.29Zm-56.39,5V39.11H84.75V57.3Z"/><g id="Restaurants"><text class="cls-4" transform="translate(54.78 155.93) scale(0.9 1)">500m</text></g></svg>