<svg id="Layer_1" data-name="Layer 1" xmlns="http://www.w3.org/2000/svg" viewBox="0 0 160 160"><defs><style>.cls-1{fill:#bbcc92;}.cls-2{fill:#56a015;fill-rule:evenodd;}.cls-3{fill:#fff;}.cls-4{font-size:20px;fill:#246772;font-family:VarelaRound-Regular, Varela Round;}</style></defs><title>Groceries copy</title><path class="cls-1" d="M145,65a65,65,0,0,1-64.89,65l5-5.23.67-.71,2.12-2.23a57.79,57.79,0,1,0-15.48,0l2.1,2.22.69.73L80.1,130H80a65,65,0,1,1,65-65Z"/><path class="cls-2" d="M131.82,64.57h0A51.18,51.18,0,1,1,80.65,13.39,51.17,51.17,0,0,1,131.82,64.57Z"/><circle class="cls-3" cx="62.37" cy="92.73" r="4.82"/><circle class="cls-3" cx="96.99" cy="92.73" r="4.82"/><path class="cls-3" d="M113.54,34.87H110a3.09,3.09,0,0,0-3,2.6l-.77,4.78L44.18,46.09l4.21,19.24a9.83,9.83,0,0,0,9.29,7.73l43.12,1.39-1.29,7.87H56a1.76,1.76,0,0,0-1.76,1.76h0A1.76,1.76,0,0,0,56,85.85H99.94a2.64,2.64,0,0,0,2.6-2.2h0l7.38-44.36h3.7a2.19,2.19,0,0,0,2.19-2.35A2.25,2.25,0,0,0,113.54,34.87Z"/><g id="Restaurants"><text class="cls-4" transform="translate(54.78 155.93) scale(0.9 1)">500m</text></g></svg>