<svg id="Layer_1" data-name="Layer 1" xmlns="http://www.w3.org/2000/svg" viewBox="0 0 160 160"><defs><style>.cls-1{font-size:20px;fill:#246772;font-family:VarelaRound-Regular, Varela Round;}.cls-2{fill:#e58088;}.cls-3{fill:#ff1d25;fill-rule:evenodd;}.cls-4{fill:#fff;}</style></defs><title>Gym</title><g id="Restaurants"><text class="cls-1" transform="translate(54.78 155.93) scale(0.9 1)">500m</text></g><path class="cls-2" d="M145.62,65a65,65,0,0,1-64.86,65l4.95-5.22.67-.71,2.12-2.23a57.77,57.77,0,1,0-15.48,0l2.1,2.22.7.73,4.92,5.2h-.09a65,65,0,1,1,65-65Z"/><path class="cls-3" d="M132.45,64.55h0A51.17,51.17,0,1,1,81.29,13.38,51.17,51.17,0,0,1,132.45,64.55Z"/><rect class="cls-4" x="64.94" y="63.04" width="31.76" height="6.16"/><rect class="cls-4" x="116.36" y="63.04" width="4.96" height="6.16"/><rect class="cls-4" x="40.4" y="63.04" width="4.96" height="6.16"/><rect class="cls-4" x="57.05" y="48.36" width="7.89" height="35.5" rx="3.94"/><rect class="cls-4" x="47.3" y="52.52" width="7.89" height="27.2" rx="3.94"/><rect class="cls-4" x="106.53" y="52.52" width="7.89" height="27.2" rx="3.94"/><rect class="cls-4" x="96.69" y="48.36" width="7.89" height="35.5" rx="3.94"/></svg>