<svg id="Layer_1" data-name="Layer 1" xmlns="http://www.w3.org/2000/svg" viewBox="0 0 160 160"><defs><style>.cls-1{font-size:20px;fill:#246772;font-family:VarelaRound-Regular, Varela Round;}.cls-2{fill:#97a8d3;}.cls-3{fill:#212826;fill-rule:evenodd;}.cls-4{fill:#fff;}</style></defs><title>Hairdresser</title><g id="Restaurants"><text class="cls-1" transform="translate(54.78 155.93) scale(0.9 1)">500m</text></g><path class="cls-2" d="M145,65a65,65,0,0,1-64.87,65l5-5.22.67-.71,2.12-2.23a57.77,57.77,0,1,0-15.48,0l2.1,2.22.69.73L80.1,130H80a65,65,0,1,1,65-65Z"/><path class="cls-3" d="M131.8,64.55h0A51.16,51.16,0,1,1,80.65,13.38,51.16,51.16,0,0,1,131.8,64.55Z"/><path class="cls-4" d="M113.5,83.7l-6.59,6.59a2.88,2.88,0,0,1-4.08,0l-.34-.34,8.63-8.63a.49.49,0,0,0,0-.69h0a.49.49,0,0,0-.69,0l-8.63,8.63L99.5,87l8.63-8.62a.5.5,0,0,0,0-.7h0a.49.49,0,0,0-.69,0l-8.63,8.63L96.5,84l8.63-8.63a.49.49,0,0,0,0-.69h0a.49.49,0,0,0-.69,0l-8.63,8.63L93.5,81l8.63-8.63a.49.49,0,0,0,0-.69h0a.49.49,0,0,0-.69,0l-8.63,8.63L90.51,78l8.63-8.62a.5.5,0,0,0,0-.7h0a.5.5,0,0,0-.7,0l-8.62,8.63L87.51,75l8.63-8.63a.49.49,0,0,0,0-.69h0a.49.49,0,0,0-.69,0l-8.63,8.63-.92-.93-5.09,4.48L97.1,94.12a6.76,6.76,0,0,0,9.56,0l7.57-9.77a.48.48,0,0,0,0-.65A.49.49,0,0,0,113.5,83.7Z"/><path class="cls-4" d="M72.06,69.08l4.41-5.15-1-1,8.63-8.63a.49.49,0,0,0,0-.69h0a.49.49,0,0,0-.69,0l-8.63,8.63L72.53,60l8.63-8.63a.49.49,0,0,0,0-.69h0a.5.5,0,0,0-.7,0l-8.63,8.63L69.53,57l8.63-8.63a.49.49,0,0,0,0-.69h0a.47.47,0,0,0-.69,0l-8.63,8.62L66.53,54l8.63-8.63a.49.49,0,0,0,0-.69h0a.49.49,0,0,0-.69,0L65.84,53.3,63.54,51l8.63-8.63a.49.49,0,0,0,0-.69h0a.5.5,0,0,0-.7,0L62.84,50.3,60.54,48l8.63-8.63a.49.49,0,0,0,0-.69h0a.47.47,0,0,0-.69,0L59.85,47.3,59.52,47a2.88,2.88,0,0,1,0-4.08l6.59-6.59a.49.49,0,0,0,0-.69.48.48,0,0,0-.65,0l-9.77,7.57a6.76,6.76,0,0,0,0,9.56Z"/><path class="cls-4" d="M56.8,92.84l-.07.3a10.26,10.26,0,0,0,5.1-2.34l28.41-25,10-9.94a8.93,8.93,0,1,0,2-6.42L88,63.58l-1.91-1.92,14-13.9a14.34,14.34,0,0,0,2.73-3.31,8.94,8.94,0,1,0-11.93,4.19,8.65,8.65,0,0,0,3,.84l-10,10-24.8,28.9A10.23,10.23,0,0,0,56.8,92.84ZM92.27,45.78a5.76,5.76,0,1,1,6.26-.84l-.19.16A5.78,5.78,0,0,1,92.27,45.78Zm11.66,6.86a5.76,5.76,0,1,1,2.7,7.68A5.77,5.77,0,0,1,103.93,52.64ZM82.62,65.11a1.56,1.56,0,1,1,.73,2.08A1.55,1.55,0,0,1,82.62,65.11Z"/></svg>