<svg id="Layer_1" data-name="Layer 1" xmlns="http://www.w3.org/2000/svg" viewBox="0 0 160 160"><defs><style>.cls-1{fill:#e5caaa;}.cls-2{fill:#dd6c07;fill-rule:evenodd;}.cls-3{fill:#fff;}.cls-4{font-size:20px;fill:#246772;font-family:VarelaRound-Regular, Varela Round;}</style></defs><title>Hardware copy</title><path class="cls-1" d="M145,65.27a65,65,0,0,1-64.89,65l5-5.22.67-.71,2.12-2.24a57.76,57.76,0,1,0-15.48,0l2.1,2.22.69.73,4.93,5.2H80a65,65,0,1,1,65-65Z"/><path class="cls-2" d="M131.82,64.83h0A51.18,51.18,0,1,1,80.65,13.65,51.18,51.18,0,0,1,131.82,64.84Z"/><path class="cls-3" d="M79.34,52.87l-.49-.45A15.76,15.76,0,0,0,58.32,32.54a1,1,0,0,0-.63.75,1,1,0,0,0,.28.93l8,8a1.31,1.31,0,0,1,.38.69A1.27,1.27,0,0,1,66,44.06l-5.2,5.2a1.28,1.28,0,0,1-.69.38A1.25,1.25,0,0,1,59,49.29l-8-8a1,1,0,0,0-.63-.32,1,1,0,0,0-1.08.65A15.74,15.74,0,0,0,68.83,62.23l.34.38a1,1,0,0,0,1.39,0l8.79-8.37A1,1,0,0,0,79.34,52.87ZM85.87,78.5a1.75,1.75,0,0,0,0,2.35L98.82,95a9.11,9.11,0,0,0,6.56,3h.21a9.16,9.16,0,0,0,9.15-9.39h0a9.06,9.06,0,0,0-3-6.56L97,68.81a1.74,1.74,0,0,0-2.46.13ZM74.22,68.13a5.68,5.68,0,0,1-1,1.39,5.55,5.55,0,0,1-5.94,1.25,1,1,0,0,0-1.1.23L53.61,83.56A8.73,8.73,0,0,0,66,95.9L78.51,83.33a1,1,0,0,0,.23-1.09,5.54,5.54,0,0,1,7.18-7.18,1.06,1.06,0,0,0,1.1-.23l2.37-2.37a3.8,3.8,0,0,0,0-5.35l-1-1,20.94-21a1.78,1.78,0,0,0,.36-.14l3.95-2.09a1.91,1.91,0,0,0,.46-3.06l-4.45-4.45a1.91,1.91,0,0,0-3.06.46l-2.09,3.95a2.75,2.75,0,0,0-.15.36l-8.62,8.62L92.23,52.3,83.4,61.13l-1-1a3.78,3.78,0,0,0-5.35,0l-2.37,2.37a1.06,1.06,0,0,0-.23,1.1,5.41,5.41,0,0,1,.37,2.16A5.12,5.12,0,0,1,74.22,68.13Z"/><g id="Restaurants"><text class="cls-4" transform="translate(54.78 155.93) scale(0.9 1)">500m</text></g></svg>