<svg id="Layer_1" data-name="Layer 1" xmlns="http://www.w3.org/2000/svg" viewBox="0 0 160 160"><defs><style>.cls-1{font-size:20px;fill:#246772;font-family:VarelaRound-Regular, Varela Round;}.cls-2{fill:#99cc81;}.cls-3{fill:#356920;fill-rule:evenodd;}.cls-4{fill:#fff;}</style></defs><title>Home &amp;amp; Garden Stores</title><g id="Restaurants"><text class="cls-1" transform="translate(54.78 155.93) scale(0.9 1)">500m</text></g><path class="cls-2" d="M145.15,65a65,65,0,0,1-64.86,65l4.95-5.22.67-.71L88,121.79a57.77,57.77,0,1,0-15.48,0l2.1,2.22.7.73,4.92,5.2h-.1a65,65,0,1,1,65-65Z"/><path class="cls-3" d="M132,64.55h0A51.17,51.17,0,1,1,80.82,13.38,51.17,51.17,0,0,1,132,64.55Z"/><g id="surface1"><path class="cls-4" d="M103.73,73.35a9.62,9.62,0,0,0-2,.22,5.63,5.63,0,0,0-4.86-4.33L94.35,69V66.45a5.62,5.62,0,0,0-5-5.59h-.07L78.05,60a5.63,5.63,0,0,0-6.21,5.6v.84L67.67,66,60.52,41a1.88,1.88,0,0,0-1.81-1.36H51a1.88,1.88,0,1,0,0,3.75H57.3l7,24.65v5.55a9.67,9.67,0,0,0-1.88-.19,9.38,9.38,0,1,0,7.5,15H96.23a9.38,9.38,0,1,0,7.5-15ZM75.59,65.62a1.88,1.88,0,0,1,2.09-1.87h.07L89,64.59a1.87,1.87,0,0,1,1.64,1.86v2.1l-15-1.67ZM62.46,88.36a5.63,5.63,0,1,1,5.63-5.63A5.63,5.63,0,0,1,62.46,88.36Zm9.19-3.75a9,9,0,0,0,.19-1.88,9.38,9.38,0,0,0-3.75-7.5h0V69.82L96.43,73a1.87,1.87,0,0,1,1.67,1.86v.4h0a9.4,9.4,0,0,0-3.75,7.5,9.75,9.75,0,0,0,.19,1.88Zm32.08,3.75a5.63,5.63,0,1,1,5.63-5.63A5.64,5.64,0,0,1,103.73,88.36Z"/><path class="cls-4" d="M88.72,77.1H77.47a1.88,1.88,0,1,0,0,3.75H88.72a1.88,1.88,0,1,0,0-3.75Z"/><path class="cls-4" d="M64.34,82.73a1.88,1.88,0,1,1-1.88-1.88A1.88,1.88,0,0,1,64.34,82.73Z"/><path class="cls-4" d="M105.61,82.73a1.88,1.88,0,1,1-1.88-1.88A1.88,1.88,0,0,1,105.61,82.73Z"/></g></svg>