<svg id="Layer_1" data-name="Layer 1" xmlns="http://www.w3.org/2000/svg" viewBox="0 0 160 160"><defs><style>.cls-1{fill:#a996d6;}.cls-2{fill:#6727ba;fill-rule:evenodd;}.cls-3{fill:#fff;}.cls-4{font-size:20px;fill:#246772;font-family:VarelaRound-Regular, Varela Round;}</style></defs><title>Hotel copy</title><path class="cls-1" d="M145,65a65,65,0,0,1-64.89,65l5-5.23.67-.71,2.12-2.23a57.79,57.79,0,1,0-15.48,0l2.1,2.22.69.73L80.1,130H80a65,65,0,1,1,65-65Z"/><path class="cls-2" d="M131.82,64.57h0A51.18,51.18,0,1,1,80.65,13.39,51.17,51.17,0,0,1,131.82,64.57Z"/><path class="cls-3" d="M92.07,63.32v-13H53.84a13,13,0,0,0-13,13H92.07Z"/><path class="cls-3" d="M117,67.88h0V46.23a2.43,2.43,0,0,0-2.43-2.43h0a2.43,2.43,0,0,0-2.43,2.43V67.88H38.55V80.41A2.43,2.43,0,0,0,41,82.84h0a2.43,2.43,0,0,0,2.44-2.43v-6h68.75v6a2.43,2.43,0,0,0,2.43,2.43h0A2.43,2.43,0,0,0,117,80.41v-6h0Z"/><circle class="cls-3" cx="101.75" cy="56.33" r="6.05" transform="translate(-10.22 24.88) rotate(-13.28)"/><g id="Restaurants"><text class="cls-4" transform="translate(54.78 155.93) scale(0.9 1)">500m</text></g></svg>