<svg id="Layer_1" data-name="Layer 1" xmlns="http://www.w3.org/2000/svg" viewBox="0 0 160 160"><defs><style>.cls-1{font-size:20px;fill:#246772;font-family:VarelaRound-Regular, Varela Round;}.cls-2{fill:#ffab66;}.cls-3{fill:#ff7e00;fill-rule:evenodd;}.cls-4{fill:none;stroke:#fff;stroke-miterlimit:10;stroke-width:1.81px;}.cls-5{fill:#fff;}</style></defs><title>Nightlife</title><g id="Restaurants"><text class="cls-1" transform="translate(54.78 155.93) scale(0.9 1)">500m</text></g><path class="cls-2" d="M145.62,65a65,65,0,0,1-64.86,65l4.95-5.22.67-.71,2.12-2.23a57.77,57.77,0,1,0-15.48,0l2.1,2.22.7.73,4.92,5.2h-.09a65,65,0,1,1,65-65Z"/><path class="cls-3" d="M132.45,64.55h0A51.17,51.17,0,1,1,81.29,13.38,51.17,51.17,0,0,1,132.45,64.55Z"/><path class="cls-4" d="M77.38,78.59,92.71,63.11H54.54L69.87,78.59A5.3,5.3,0,0,0,77.38,78.59Z"/><path class="cls-5" d="M76.53,78.89l10-10.09H60.73l10,10.09A4.08,4.08,0,0,0,76.53,78.89Z"/><rect class="cls-5" x="72.26" y="81.09" width="2.74" height="18.88"/><rect class="cls-5" x="64.31" y="99.28" width="18.64" height="1.74"/><rect class="cls-5" x="54.82" y="65.71" width="21.62" height="0.86" transform="translate(35.46 154.3) rotate(-116.33)"/><path class="cls-5" d="M96,72.59V83.46a3.15,3.15,0,1,0,.85,2.65h0V73l14.2-6.1V77.4a3.15,3.15,0,1,0,.88,2.18V61L96,67.89Z"/><path class="cls-5" d="M85,22.54A14.82,14.82,0,0,1,73.17,48.25,14.81,14.81,0,1,0,85,22.54Z"/><polygon class="cls-5" points="73.17 36.18 74.99 35.22 74.64 37.25 76.12 38.69 74.08 38.98 73.17 40.83 72.26 38.98 70.22 38.69 71.69 37.25 71.35 35.22 73.17 36.18"/><polygon class="cls-5" points="108.41 43.13 110.23 42.17 109.89 44.2 111.36 45.63 109.32 45.93 108.41 47.77 107.5 45.93 105.47 45.63 106.94 44.2 106.59 42.17 108.41 43.13"/><polygon class="cls-5" points="60.1 40.97 61.28 40.35 61.06 41.66 62.02 42.6 60.69 42.79 60.1 43.99 59.51 42.79 58.18 42.6 59.14 41.66 58.91 40.35 60.1 40.97"/></svg>