<svg id="Layer_1" data-name="Layer 1" xmlns="http://www.w3.org/2000/svg" viewBox="0 0 160 160"><defs><style>.cls-1{fill:#dba5d1;}.cls-2,.cls-4{fill:#bf2673;}.cls-2{fill-rule:evenodd;}.cls-3{fill:#fff;}.cls-5{font-size:20px;fill:#246772;font-family:VarelaRound-Regular, Varela Round;}</style></defs><title>Pharmacy copy</title><path class="cls-1" d="M145,65a65,65,0,0,1-64.89,65l5-5.23.67-.71,2.12-2.23a57.79,57.79,0,1,0-15.48,0l2.1,2.22.69.73L80.1,130H80a65,65,0,1,1,65-65Z"/><path class="cls-2" d="M131.82,64.57h0A51.18,51.18,0,1,1,80.65,13.39,51.17,51.17,0,0,1,131.82,64.57Z"/><path class="cls-3" d="M62,42.07h-.58a1.08,1.08,0,0,1-1-1.14V27.28a1,1,0,0,1,.28-.74,1,1,0,0,1,.71-.3H98.59a1.05,1.05,0,0,1,.74.3,1.07,1.07,0,0,1,.3.74V40.93a1.12,1.12,0,0,1-1,1.14H62Zm35,2.82h0A1.06,1.06,0,0,1,98,46v1.79l.23.11a14,14,0,0,1,5.72,5,14.76,14.76,0,0,1,2.47,8.23v32a7.89,7.89,0,0,1-7.85,7.83H61.42a7.83,7.83,0,0,1-7.8-7.82v-32c0-.08,0-.16,0-.24s0-.2,0-.3a.66.66,0,0,0,0-.14c0-.16,0-.28,0-.4s0-.45.05-.53l.07-.53c0-.08.07-.44.09-.53l0-.23.06-.29.07-.3.06-.22.06-.24a2.76,2.76,0,0,0,.08-.27,2.17,2.17,0,0,0,.07-.24l.09-.26.08-.24a2.77,2.77,0,0,0,.1-.26l.09-.23.11-.26.09-.23.15-.31.08-.17.11-.22.12-.25.25-.46.27-.45.28-.44.25-.36.17-.22L56.7,52l.14-.17a2.88,2.88,0,0,1,.19-.24l.14-.16.06-.07.14-.16.36-.39.17-.17.2-.2.38-.35.19-.17.2-.18.2-.15.21-.18.2-.15.22-.16.21-.15.23-.15.2-.14.29-.17.16-.1.22-.12.24-.14.39-.19.07,0a.41.41,0,0,0,.32-.4v-1.8a1.06,1.06,0,0,1,1.06-1.06h0Z"/><path class="cls-4" d="M85.45,88.31a1,1,0,0,1-1,1h-9a1,1,0,0,1-1.05-1V78.94H65.19a1.07,1.07,0,0,1-1.06-1.06V69.47a1.06,1.06,0,0,1,1.06-1.06h9.19V59A1.05,1.05,0,0,1,75.43,58h9a1.05,1.05,0,0,1,1,1.06v9.37h9.37a1.05,1.05,0,0,1,1.06,1.06v8.41a1.06,1.06,0,0,1-1.06,1.06H85.43Z"/><g id="Restaurants"><text class="cls-5" transform="translate(54.78 155.93) scale(0.9 1)">500m</text></g></svg>