<svg id="Layer_1" data-name="Layer 1" xmlns="http://www.w3.org/2000/svg" viewBox="0 0 160 160"><defs><style>.cls-1{font-size:20px;fill:#246772;font-family:VarelaRound-Regular, Varela Round;}.cls-2{fill:#ffe79c;}.cls-3{fill:#ffc800;fill-rule:evenodd;}.cls-4{fill:#fff;}</style></defs><title>Postal Services</title><g id="Restaurants"><text class="cls-1" transform="translate(54.78 155.93) scale(0.9 1)">500m</text></g><path class="cls-2" d="M144.71,65a65,65,0,0,1-64.87,65l5-5.22.68-.71,2.11-2.23a57.77,57.77,0,1,0-15.47,0l2.1,2.22.69.73,4.93,5.2h-.1a65,65,0,1,1,65-65Z"/><path class="cls-3" d="M131.53,64.55h0A51.16,51.16,0,1,1,80.37,13.38,51.16,51.16,0,0,1,131.53,64.55Z"/><path class="cls-4" d="M106.45,86.54H59.36a1.68,1.68,0,0,1-1.68-1.67V80.13H51.42a1.68,1.68,0,0,1,0-3.35H63.11a1.68,1.68,0,0,1,0,3.35H61v3.06h43.75V55.13L87.15,67a8.29,8.29,0,0,1-8.69-.14L61,55.13V66.21h2.08a1.68,1.68,0,0,1,0,3.35H51.42a1.68,1.68,0,0,1,0-3.35h6.26V47.52a1.68,1.68,0,0,1,1.68-1.68h47.09a1.68,1.68,0,0,1,1.68,1.68V84.87A1.68,1.68,0,0,1,106.45,86.54ZM61,51.1l19.3,13a5,5,0,0,0,5,.14l19.5-13.11V49.2H61Zm1,23.74H46.63a1.68,1.68,0,1,1,0-3.35H62.07a1.68,1.68,0,1,1,0,3.35Z"/></svg>