<svg id="Layer_1" data-name="Layer 1" xmlns="http://www.w3.org/2000/svg" viewBox="0 0 160 160"><defs><style>.cls-1{fill:#dda4a4;}.cls-2{fill:#c12525;fill-rule:evenodd;}.cls-3{fill:#fff;}.cls-4{font-size:20px;fill:#246772;font-family:VarelaRound-Regular, Varela Round;}</style></defs><title>Restaraunt copy</title><path class="cls-1" d="M145,65a65,65,0,0,1-64.89,65l5-5.23.67-.71,2.12-2.23a57.79,57.79,0,1,0-15.48,0l2.1,2.22.69.73L80.1,130H80a65,65,0,1,1,65-65Z"/><path class="cls-2" d="M131.82,64.57h0A51.18,51.18,0,1,1,80.65,13.39,51.17,51.17,0,0,1,131.82,64.57Z"/><path class="cls-3" d="M94.15,59.35l3.77-.24h0a8.9,8.9,0,0,0,6.62-3.85l3-4.36A17.58,17.58,0,0,0,110.38,38a4,4,0,0,0-1.29-2.3,4,4,0,0,0-2.45-1A17.69,17.69,0,0,0,94.12,39l-4,3.47a8.86,8.86,0,0,0-3,7v0l.22,3.76a5.29,5.29,0,0,1-1.48,4L54.67,89.13a4.46,4.46,0,0,0-1.21,3.35,5.33,5.33,0,0,0,1.75,3.74,5.44,5.44,0,0,0,3.52,1.3l.41,0a4.54,4.54,0,0,0,3.2-1.6l28-34.62a5.31,5.31,0,0,1,3.78-1.93Zm-5.28.73"/><path class="cls-3" d="M108.85,88.89,88,70A1,1,0,0,0,86.6,70c-.35.39-3.15,4-3.54,4.39A1,1,0,0,0,83,75.76l18.61,20.35a4.58,4.58,0,0,0,3.29,1.41h.1A5.43,5.43,0,0,0,108.75,96a5.35,5.35,0,0,0,1.52-3.84,4.52,4.52,0,0,0-1.42-3.27Zm0,0"/><path class="cls-3" d="M58,59.16a8.91,8.91,0,0,0,5.83,2.35h3.8a5.35,5.35,0,0,1,3.89,1.71l1.66,1.82a1,1,0,0,0,.72.31.92.92,0,0,0,.64-.25c.4-.35,2.77-2.8,3.13-3.19a1,1,0,0,0-.07-1.35L75.84,59a5.27,5.27,0,0,1-1.71-3.87l0-3.77v0a8.89,8.89,0,0,0-2.35-5.8l-.09-.09L58.59,34.45a2.25,2.25,0,0,0-3.05,3.31l10,9.94a.6.6,0,0,1,0,.84L65,49,53.91,38a1,1,0,0,0-1.36,0,1,1,0,0,0,0,1.36L63.67,50.39l-.73.72L51.83,40a1,1,0,0,0-1.36,0,.94.94,0,0,0,0,1.35L61.58,52.46l-.49.49a.59.59,0,0,1-.85,0L50.26,43a2.25,2.25,0,0,0-1.59-.66,2.29,2.29,0,0,0-1.6.66,2.24,2.24,0,0,0-.13,3l11,13a.6.6,0,0,0,.08.08Zm0,0"/><g id="Restaurants"><text class="cls-4" transform="translate(54.78 155.93) scale(0.9 1)">500m</text></g></svg>