<svg id="Layer_1" data-name="Layer 1" xmlns="http://www.w3.org/2000/svg" viewBox="0 0 160 160"><defs><style>.cls-1{font-size:20px;fill:#246772;font-family:VarelaRound-Regular, Varela Round;}.cls-2{fill:#c683ba;}.cls-3{fill:#841a6b;fill-rule:evenodd;}.cls-4{fill:#fff;}</style></defs><title>Service Centers</title><g id="Restaurants"><text class="cls-1" transform="translate(54.78 155.93) scale(0.9 1)">500m</text></g><path class="cls-2" d="M145.26,65A65,65,0,0,1,80.4,130l4.95-5.22L86,124l2.11-2.23a57.76,57.76,0,1,0-15.48,0L74.77,124l.69.73,4.93,5.2h-.1a65,65,0,1,1,65-65Z"/><path class="cls-3" d="M132.09,64.55h0A51.16,51.16,0,1,1,80.93,13.38,51.16,51.16,0,0,1,132.09,64.55Z"/><path class="cls-4" d="M58.18,77.51c-.54,0-.94,0-1.33,0a1.37,1.37,0,0,1-1.45-1.19c-.24-1.19-.53-2.36-.75-3.55a1.34,1.34,0,0,1,1.45-1.66c1.43,0,2.86,0,4.29,0a.94.94,0,0,0,1-.7c.75-1.62,1.52-3.23,2.38-4.8,1.27-2.31,3.49-3.33,5.88-4.06a41.47,41.47,0,0,1,14.87-1.4,36.08,36.08,0,0,1,8.65,1.62,9.72,9.72,0,0,1,6.09,5.41c.51,1.1,1,2.19,1.48,3.31a.83.83,0,0,0,.9.62c1.38,0,2.76,0,4.13,0s1.9.67,1.62,2c-.21,1-.38,1.94-.59,2.91-.26,1.21-.61,1.49-1.87,1.5h-1.12A9.54,9.54,0,0,1,105.92,82a8.93,8.93,0,0,1-2.07,7.61,2.43,2.43,0,0,0-.67,1.84c0,1.23,0,2.47,0,3.71A2.07,2.07,0,0,1,101,97.43c-1.49,0-3,0-4.46,0a2,2,0,0,1-2.13-2.11c0-.6,0-1.21,0-1.88H67.79c0,.59,0,1.16,0,1.73a2.06,2.06,0,0,1-2.32,2.27H61.25a2.08,2.08,0,0,1-2.31-2.29c0-1.43,0-2.87,0-4.29a1.58,1.58,0,0,0-.35-.95,9.32,9.32,0,0,1-.66-12C58,77.84,58,77.75,58.18,77.51Zm39.31-4.29c-.6-1.4-1.17-2.64-1.68-3.91a6.31,6.31,0,0,0-4.34-3.83,37.18,37.18,0,0,0-12.72-1.33,30.21,30.21,0,0,0-8.58,1.51,5.58,5.58,0,0,0-3.56,3.08c-.59,1.36-1.18,2.72-1.76,4.09a1.42,1.42,0,0,0,0,.39ZM70.06,84a4,4,0,0,0-8,0,4,4,0,0,0,8,0Zm26.08-4a3.92,3.92,0,0,0-4,3.93,4,4,0,1,0,7.94,0A3.91,3.91,0,0,0,96.14,80Z"/><path class="cls-4" d="M73.06,56.13l6.12-6.81a.81.81,0,0,0-.06-1.14l-.39-.35,6.9-6.91.25.27a.46.46,0,0,0,.66,0l.21-.22a7.27,7.27,0,0,0,9.17-9.48.47.47,0,0,0-.34-.3.48.48,0,0,0-.43.13L91.44,35a.62.62,0,0,1-.32.17A.56.56,0,0,1,90.6,35l-2.4-2.4a.67.67,0,0,1-.17-.32.56.56,0,0,1,.16-.52l3.7-3.7A.48.48,0,0,0,92,27.8a.46.46,0,0,0-.3-.5,7.26,7.26,0,0,0-9.52,9l-.18.16a.46.46,0,0,0,0,.64l.28.29-7.17,7.17-.43-.39a.8.8,0,0,0-1.08,0l-6.55,6a4.15,4.15,0,0,0-1.37,3v.1a4.23,4.23,0,0,0,7.36,2.83Z"/></svg>