<svg id="Layer_1" data-name="Layer 1" xmlns="http://www.w3.org/2000/svg" viewBox="0 0 160 160"><defs><style>.cls-1{fill:#93ccae;}.cls-2{fill:#169e74;fill-rule:evenodd;}.cls-3{fill:#fff;}.cls-4{font-size:20px;fill:#246772;font-family:VarelaRound-Regular, Varela Round;}</style></defs><title>Sushi copy</title><path class="cls-1" d="M145,65a65,65,0,0,1-64.89,65l5-5.23.67-.71,2.12-2.23a57.79,57.79,0,1,0-15.48,0l2.1,2.22.69.73L80.1,130H80a65,65,0,1,1,65-65Z"/><path class="cls-2" d="M131.82,64.57h0A51.18,51.18,0,1,1,80.65,13.39,51.17,51.17,0,0,1,131.82,64.57Z"/><path class="cls-3" d="M77,64c-9.86,0-17.86,2.39-17.86,5.34V92.71c0,3,8,5.34,17.86,5.34s17.86-2.39,17.86-5.34V69.29C94.86,66.34,86.87,64,77,64Zm0,9.34c-10.39,0-16.06-2.64-16.06-4s5.67-4,16.06-4,16.06,2.64,16.06,4S87.39,73.29,77,73.29Z"/><ellipse class="cls-3" cx="77" cy="69.09" rx="7.75" ry="2.07"/><path class="cls-3" d="M123.15,65.45l-22.8-5.78-1.72-.43-1.7-.44-5.64-1.42-1.8-.46-1.81-.46-36-9.12a4,4,0,0,1,1-4.23l30.15,8.6,1.89.53,1.89.54,6.25,1.78,1.79.51,1.78.51,27.23,7.76A2.57,2.57,0,0,1,123.15,65.45Z"/><path class="cls-3" d="M90.28,51.89,83.8,50,60.51,27.23a4.23,4.23,0,0,1,3-3.25Z"/><path class="cls-3" d="M113.06,75.61c0,.38-1,1.54-1.49,1.62L94,60l5.43,1.37Z"/><g id="Restaurants"><text class="cls-4" transform="translate(54.78 155.93) scale(0.9 1)">500m</text></g></svg>