<svg id="Layer_1" data-name="Layer 1" xmlns="http://www.w3.org/2000/svg" viewBox="0 0 220.77682 220.77682"><defs><style>.cls-1{fill:none;stroke:#b5682d;stroke-miterlimit:10;stroke-width:6px;}.cls-2{fill:#b5682d;}</style></defs><title>Wifi Hotspot V5</title><circle class="cls-1" cx="110.38841" cy="110.38841" r="107.38841"/><path class="cls-2" d="M87.12374,128.06689a5.26476,5.26476,0,0,0,6.53394,1.47747,37.21943,37.21943,0,0,1,33.5573-.02479,5.21932,5.21932,0,0,0,6.44493-1.51783l.27467-.35788a5.2601,5.2601,0,0,0-1.65424-7.80813,44.26728,44.26728,0,0,0-43.77933.08321,5.26137,5.26137,0,0,0-1.64294,7.80179Z"/><path class="cls-2" d="M75.63757,113.39244a5.24043,5.24043,0,0,0,7.11437,1.13039,47.75623,47.75623,0,0,1,55.29816-.08054,5.24088,5.24088,0,0,0,7.10441-1.13726l.088-.11467a5.2528,5.2528,0,0,0-1.04627-7.42305c-9.97476-7.3474-21.48464-11.55187-33.73814-11.55187-12.30685,0-23.86455,4.23957-33.86966,11.64618a5.2537,5.2537,0,0,0-1.03814,7.41711Z"/><path class="cls-2" d="M64.464,98.83875a5.22046,5.22046,0,0,0,7.347.96582c11.30213-8.85726,24.52124-13.965,38.64336-13.965,14.07577,0,27.25518,5.07245,38.53277,13.8752a5.22059,5.22059,0,0,0,7.33943-.97151l.00235-.00306a5.26648,5.26648,0,0,0-.84345-7.26113c-13.024-10.815-28.47528-17.08856-45.0311-17.08856-16.60791,0-32.10373,6.31418-45.15337,17.19263a5.2669,5.2669,0,0,0-.837,7.2556Z"/><circle class="cls-2" cx="110.39652" cy="140.15614" r="6.23016"/></svg>