<svg id="Layer_1" data-name="Layer 1" xmlns="http://www.w3.org/2000/svg" viewBox="0 0 220.77682 220.77682"><defs><style>.cls-1{fill:none;stroke:#e23744;stroke-miterlimit:10;stroke-width:6px;}.cls-2{fill:#e23744;}</style></defs><title>Zomato</title><circle class="cls-1" cx="110.38841" cy="110.38841" r="107.38841"/><g id="Group"><path id="zomato-copy-10" class="cls-2" d="M47.1438,100.17293l-.16611,5.27385L33.23247,120.39626c5.73064,0,9.385-.04153,11.46127-.16611-.62289,2.82379-1.12121,5.14926-1.61952,8.63748-2.74074-.24916-7.05948-.29068-11.37822-.29068-4.81706,0-9.01122.04153-12.37485.29068l.12458-5.31537L33.191,108.68583c-6.02132,0-8.22222.04152-10.7138.12458.53985-2.65769.95511-5.60606,1.32884-8.55443,4.40179.08306,6.1459.16611,11.79348.16611C40.87332,100.42209,43.82169,100.339,47.1438,100.17293Zm9.75868,16.52748c0,3.52974,1.16274,5.31537,3.156,5.31537,2.65768,0,4.734-4.27721,4.734-9.50953,0-3.57126-1.16274-5.31537-3.07295-5.31537C59.06185,107.19088,56.90248,111.42657,56.90248,116.70041Zm18.064-4.60942c0,9.59258-6.76879,17.60717-15.78,17.60717-8.0561,0-12.20874-5.48148-12.20874-12.66554,0-9.551,6.85185-17.52411,15.78-17.52411C70.93838,99.50851,74.96644,104.99,74.96644,112.091Zm108.09306,4.60942c0,3.52974,1.16273,5.31537,3.156,5.31537,2.65768,0,4.734-4.27721,4.734-9.50953,0-3.57126-1.16273-5.31537-3.07295-5.31537C185.21887,107.19088,183.0595,111.42657,183.0595,116.70041Zm18.39617-4.77553c0,9.71717-6.89337,17.81481-15.98764,17.81481-8.18069,0-12.33333-5.56453-12.33333-12.83164,0-9.67564,6.93491-17.77327,15.98764-17.77327C197.38608,99.13477,201.45567,104.6993,201.45567,111.92488Zm-80.10432-3.11447c.706-4.94164.33221-9.385-5.14926-9.385-3.98653,0-8.26374,3.36363-11.29517,8.96968.66443-4.65094.29069-8.96968-5.14926-8.96968-4.06958,0-8.5129,3.52973-11.54432,9.385a28.504,28.504,0,0,0,.37373-9.09427,61.451,61.451,0,0,1-9.75869.91358,50.661,50.661,0,0,1-.53984,9.42648l-1.28732,8.679c-.49832,3.40517-1.03816,7.35017-1.61953,9.84175h10.257c.04153-1.495.45679-3.862.70594-5.97979l.87206-5.9798c.706-3.862,3.82042-8.47137,6.18742-8.47137,1.37037,0,1.32884,1.32884.95511,3.82042l-.99663,6.72727c-.49832,3.40516-1.03816,7.35016-1.61953,9.84174h10.38159c.04153-1.49495.37374-3.86195.66443-5.97979l.87205-5.97979c.706-3.862,3.82043-8.47138,6.18743-8.47138,1.37036,0,1.32884,1.28732,1.12121,2.9899l-2.49158,17.358h9.468Zm49.54093,11.62737-1.12121,6.85185a18.84551,18.84551,0,0,1-8.596,2.24242c-6.27048,0-7.5578-3.36364-6.56116-10.46464l1.61953-11.46127H153.119l.87206-7.43321,3.36364-.16611L158.642,94.6084l9.55106-3.57127-1.20426,8.9697H173.55c-.20763.91357-.99663,6.02131-1.20426,7.59932h-6.39506l-1.45342,10.58921c-.37373,2.74074-.1661,3.69585,1.70258,3.69585A12.60824,12.60824,0,0,0,170.89228,120.43778Z"/><path id="a-copy-7" class="cls-2" d="M134.72284,123.67684c3.48821-.41527,5.85522-3.7789,6.43658-7.101l.08306-.91358a17.91222,17.91222,0,0,0-5.73063-.33222,6.52351,6.52351,0,0,0-4.52637,2.284,4.26218,4.26218,0,0,0-.87205,3.11448C130.32105,122.55563,132.35583,123.96752,134.72284,123.67684Zm-2.9899,5.31537c-4.9001.6229-8.13917-1.32884-9.09427-5.77216a10.11247,10.11247,0,0,1,1.70259-7.84848c1.99326-2.49158,5.19079-4.06958,9.13579-4.56789a25.81289,25.81289,0,0,1,8.30527.29068l.12457-.41526a9.548,9.548,0,0,0,.04153-2.2009c-.24916-2.07632-1.91021-3.36363-5.97979-2.86532a21.19034,21.19034,0,0,0-7.43321,2.45006l-1.99326-5.9798a27.4048,27.4048,0,0,1,10.21548-3.28058c7.59932-.95511,12.95622,1.495,13.62064,7.05948a18.00632,18.00632,0,0,1,0,4.48484q-1.49494,10.34007-1.86869,15.57238c-.04153.53984-.04153,1.45342,0,2.78226h-9.42648a13.07647,13.07647,0,0,0,.53983-2.2009c.12458-.62289.16611-1.37037.24916-2.32547A11.31006,11.31006,0,0,1,131.73294,128.99221Z"/></g></svg>